# xmcd
#
# Track frame offsets: 
#        150
#        19697
#        32524
#        55280
#        78647
#        97006
#        109799
#        129980
#        145365
#        162483
#        177248
#
# Disc length: 3006 seconds
#
# Revision: 0
# Processed by: cddbd v1.5.2PL0 Copyright (c) Steve Scherf et al.
# Submitted via: ExactAudioCopyFreeDBPlugin 1.0
#
DISCID=910bbc0b
DTITLE=Beggar's Blues Diary - The Truth
DYEAR=2013
DGENRE=Blues
TTITLE0=Truth
TTITLE1=Not My War
TTITLE2=Ain’t No Place To Go
TTITLE3=I’m The One
TTITLE4=Over Me
TTITLE5=Let It Go
TTITLE6=Midnight Blues
TTITLE7=Just A Tease
TTITLE8=Reconfessions
TTITLE9=Man Of 2 Faces
TTITLE10=Lullaby-New Dawn
EXTD=
EXTT0=
EXTT1=
EXTT2=
EXTT3=
EXTT4=
EXTT5=
EXTT6=
EXTT7=
EXTT8=
EXTT9=
EXTT10=
PLAYORDER=
